<?xml version="1.0" encoding="utf-8"?>
<!-- Svg Vector Icons : http://www.onlinewebfonts.com/icon -->
<!DOCTYPE svg PUBLIC "-//W3C//DTD SVG 1.1//EN" "http://www.w3.org/Graphics/SVG/1.1/DTD/svg11.dtd">
<svg version="1.1" xmlns="http://www.w3.org/2000/svg" xmlns:xlink="http://www.w3.org/1999/xlink" x="0px" y="0px" viewBox="0 0 256 256" enable-background="new 0 0 256 256" xml:space="preserve">
<metadata> Svg Vector Icons : http://www.onlinewebfonts.com/icon </metadata>
<g><g><path fill="#000000" d="M128,10C62.9,10,10,62.9,10,128c0,65.1,52.9,118,118,118c65.1,0,118-52.9,118-118C246,62.9,193.1,10,128,10z M128,231.4C71,231.4,24.6,185,24.6,128C24.6,71,71,24.6,128,24.6c57,0,103.4,46.4,103.4,103.4C231.4,185,185,231.4,128,231.4z"/><path fill="#000000" d="M128,100.5c-15.2,0-27.5,12.3-27.5,27.5c0,15.2,12.3,27.5,27.5,27.5c15.2,0,27.5-12.3,27.5-27.5C155.5,112.8,143.2,100.5,128,100.5z M128,140.9c-7.1,0-12.9-5.8-12.9-12.9c0-7.1,5.8-12.9,12.9-12.9s12.9,5.8,12.9,12.9C140.9,135.1,135.1,140.9,128,140.9z"/><path fill="#000000" d="M42.8,136.4c2,0,3.6-2.1,3.5-4.1c0-1.3-0.1-2.9-0.1-4.2c0-2-1.6-3.6-3.7-3.6s-3.7,1.7-3.7,3.7c0,1.4,0,3,0.1,4.4c0.1,2,1.7,3.8,3.7,3.8C42.7,136.4,42.7,136.4,42.8,136.4z"/><path fill="#000000" d="M87.7,199.2c-21.5-12.2-36.2-33-40.3-57.3c-0.3-2-2.2-3.3-4.2-3c-2,0.3-3.3,2.2-3,4.2c4.6,26.4,20.6,49.1,43.9,62.4c0.6,0.3,1.2,0.5,1.8,0.5c1.3,0,2.5-0.7,3.2-1.9C90.1,202.5,89.4,200.2,87.7,199.2z"/><path fill="#000000" d="M80.7,176.2c0.9,0,1.9-0.3,2.6-1c1.4-1.4,1.5-3.7,0-5.2c-9.5-9.7-14.7-22.4-14.7-36c0-2-1.6-3.7-3.7-3.7c-2,0-3.7,1.6-3.7,3.7c0,15.5,6,30.1,16.8,41.1C78.8,175.8,79.7,176.2,80.7,176.2z"/><path fill="#000000" d="M94.6,178.7c-1-0.6-2-1.2-3-1.9c-1.7-1.1-3.9-0.7-5.1,1c-1.1,1.7-0.7,4,1,5.1c1.1,0.7,2.3,1.5,3.5,2.1c0.6,0.3,1.2,0.5,1.8,0.5c1.3,0,2.5-0.7,3.2-1.9C97,181.9,96.4,179.7,94.6,178.7z"/><path fill="#000000" d="M99.5,157.3c-6.9-3.9-11.2-11.3-11.2-19.3c0-2-1.6-3.7-3.7-3.7c-2,0-3.7,1.6-3.7,3.7c0,10.6,5.7,20.4,15,25.6c0.6,0.3,1.2,0.5,1.8,0.5c1.3,0,2.5-0.7,3.2-1.9C101.9,160.6,101.3,158.3,99.5,157.3z"/><path fill="#000000" d="M179.3,52.2c-1.6-1.2-3.9-0.8-5.1,0.8c-1.2,1.6-0.8,3.9,0.8,5.1c23.7,17.4,36.3,46.4,32.8,75.6c-0.2,2,1.2,3.8,3.2,4c0.1,0,0.3,0,0.4,0c1.8,0,3.4-1.4,3.6-3.2C218.8,102.7,205.1,71.1,179.3,52.2z"/><path fill="#000000" d="M170.8,73.7c-1.6-1.2-3.9-0.8-5.1,0.8s-0.8,3.9,0.8,5.1c14.9,10.9,22.8,29.1,20.6,47.5c-0.2,2,1.2,3.8,3.2,4c0.1,0,0.3,0,0.4,0c1.8,0,3.4-1.4,3.6-3.2C196.9,107,187.8,86.2,170.8,73.7z"/><path fill="#000000" d="M162.5,92.1c-1.6-1.2-3.9-0.8-5.1,0.8c-1.2,1.6-0.8,3.9,0.8,5.1c6.4,4.7,9.8,12.6,8.9,20.5c-0.2,2,1.2,3.8,3.2,4.1c0.1,0,0.3,0,0.4,0c1.8,0,3.4-1.4,3.6-3.2C175.5,108.8,171,98.3,162.5,92.1z"/></g></g>
</svg>